HIERARCHY
ROOT Hips
{
    OFFSET 0.000000 0.000000 0.000000
    CHANNELS 6 Xposition Yposition Zposition Zrotation Xrotation Yrotation
    JOINT Spine
    {
        OFFSET -0.000000 7.795402 0.000000
        CHANNELS 3 Zrotation Xrotation Yrotation
        JOINT Spine1
        {
            OFFSET -0.000000 20.648252 0.000000
            CHANNELS 3 Zrotation Xrotation Yrotation
            JOINT Neck
            {
                OFFSET -0.000000 20.563454 1.869405
                CHANNELS 3 Zrotation Xrotation Yrotation
                JOINT Head
                {
                    OFFSET -0.000000 13.309221 -1.901317
                    CHANNELS 3 Zrotation Xrotation Yrotation
                    End Site
                    {
                        OFFSET -0.000000 23.766466 0.000000
                    }
                }
            }
            JOINT LeftShoulder
            {
                OFFSET 3.798743 19.114376 -0.113875
                CHANNELS 3 Zrotation Xrotation Yrotation
                JOINT LeftArm
                {
                    OFFSET 9.772051 0.000000 0.000000
                    CHANNELS 3 Zrotation Xrotation Yrotation
                    JOINT LeftForeArm
                    {
                        OFFSET 36.651028 0.000000 0.000000
                        CHANNELS 3 Zrotation Xrotation Yrotation
                        JOINT LeftHand
                        {
                            OFFSET 25.694054 0.000000 0.000000
                            CHANNELS 3 Zrotation Xrotation Yrotation
                            End Site
                            {
                                OFFSET 14.259881 0.000000 0.000000
                            }
                        }
                    }
                }
            }
            JOINT RightShoulder
            {
                OFFSET -3.780769 19.114376 -0.113875
                CHANNELS 3 Zrotation Xrotation Yrotation
                JOINT RightArm
                {
                    OFFSET -9.772051 0.000000 0.000000
                    CHANNELS 3 Zrotation Xrotation Yrotation
                    JOINT RightForeArm
                    {
                        OFFSET -36.651028 0.000000 0.000000
                        CHANNELS 3 Zrotation Xrotation Yrotation
                        JOINT RightHand
                        {
                            OFFSET -25.694054 0.000000 0.000000
                            CHANNELS 3 Zrotation Xrotation Yrotation
                            End Site
                            {
                                OFFSET -14.259881 0.000000 0.000000
                            }
                        }
                    }
                }
            }
        }
    }
    JOINT LeftUpLeg
    {
        OFFSET 9.506587 0.000000 0.000000
        CHANNELS 3 Zrotation Xrotation Yrotation
        JOINT LeftLeg
        {
            OFFSET -0.000000 -42.556026 0.000000
            CHANNELS 3 Zrotation Xrotation Yrotation
            JOINT LeftFoot
            {
                OFFSET -0.000000 -42.739758 0.000000
                CHANNELS 3 Zrotation Xrotation Yrotation
                JOINT LeftToeBase
                {
                    OFFSET -0.000000 -6.179281 14.259881
                    CHANNELS 3 Zrotation Xrotation Yrotation
                    End Site
                    {
                        OFFSET -0.000000 0.000000 3.802635
                    }
                }
            }
        }
    }
    JOINT RightUpLeg
    {
        OFFSET -9.506587 0.000000 0.000000
        CHANNELS 3 Zrotation Xrotation Yrotation
        JOINT RightLeg
        {
            OFFSET -0.000000 -42.556026 0.000000
            CHANNELS 3 Zrotation Xrotation Yrotation
            JOINT RightFoot
            {
                OFFSET -0.000000 -42.739758 0.000000
                CHANNELS 3 Zrotation Xrotation Yrotation
                JOINT RightToeBase
                {
                    OFFSET -0.000000 -6.179281 14.259881
                    CHANNELS 3 Zrotation Xrotation Yrotation
                    End Site
                    {
                        OFFSET -0.000000 0.000000 3.802635
                    }
                }
            }
        }
    }
}
MOTION
Frames:    9
Frame Time:    0.008333
-11.611045    92.547638    23.806711    0.226957    -0.082405    87.219131    -1.323804    -4.232096    -1.034464    1.433372    -1.218418    -0.970305    32.840248    49.765476    69.820747    -148.784714    39.780487    -163.157898    18.041527    1.322634    4.121614    -13.633017    4.909348    -6.576577    1.855820    1.448306    -6.442132    21.648174    0.208056    -7.024890    -15.301116    -0.335731    10.847085    16.678724    1.097737    -3.990405    -0.423499    -0.305186    3.137230    3.627690    -0.128437    5.215571    5.986994    4.243429    -1.542856    -2.575995    1.093016    1.097995    -2.434232    -5.716705    23.720280    0.000000    0.000000    0.000000    -6.508051    -0.062644    3.445370    4.108063    6.246543    -1.345428    3.462805    -7.901357    -16.751423    0.000000    0.000000    0.000000    
-11.611515    92.547905    23.811623    0.229317    -0.082650    87.227394    -1.310577    -4.236552    -1.032982    1.406968    -1.225725    -0.969424    -1.793409    39.046654    1.460533    5.876146    -2.493473    2.068678    18.033251    1.355035    4.116629    -13.686172    4.871342    -6.609970    1.883563    1.474224    -6.486456    21.329449    0.261102    -7.000765    -15.245530    -0.300966    10.842358    16.701664    1.083368    -3.958475    -0.428463    -0.306985    3.137141    3.540922    -0.134427    5.201790    6.000805    4.248723    -1.549276    -2.596526    1.079437    1.120678    -2.433351    -5.706582    23.702513    0.000000    0.000000    0.000000    -6.501415    -0.065134    3.417186    4.098554    6.258797    -1.321103    3.443129    -7.902975    -16.752735    0.000000    0.000000    0.000000    
-11.611980    92.549202    23.816542    0.228222    -0.078396    87.228844    -1.324482    -4.236658    -1.022503    1.434152    -1.251401    -0.957838    -2.056897    39.586411    1.562700    6.023000    -3.013397    2.152246    17.979805    1.370413    4.090368    -13.738199    4.879519    -6.627389    1.889385    1.456219    -6.508318    21.661865    0.161428    -7.319857    -15.206265    -0.276537    10.828754    16.715397    1.092696    -3.939679    -0.465301    -0.242987    3.129326    3.678594    -0.060275    5.294551    6.000277    4.244555    -1.559377    -2.594508    1.087659    1.105648    -2.431602    -5.701820    23.716051    0.000000    0.000000    0.000000    -6.506867    -0.069423    3.395649    4.116817    6.205453    -1.301513    3.437437    -7.832344    -16.794973    0.000000    0.000000    0.000000    
-11.612396    92.548233    23.822443    0.233427    -0.081823    87.221581    -1.356018    -4.248888    -1.002573    1.508053    -1.234347    -0.936063    -2.312847    39.905800    1.644089    6.207348    -3.331678    2.215641    17.909163    1.398524    4.072606    -13.812260    4.825783    -6.666348    1.956391    1.402024    -6.643660    21.237015    0.159837    -7.222270    -15.188172    -0.273604    10.792772    16.734596    1.136945    -3.918667    -0.421510    -0.358371    3.155521    3.379794    -0.193680    5.189064    6.006686    4.247266    -1.556099    -2.596740    1.094415    1.118410    -2.429242    -5.699737    23.705933    0.000000    0.000000    0.000000    -6.500836    -0.064474    3.427832    4.108752    6.259226    -1.336563    3.446689    -7.900526    -16.743805    0.000000    0.000000    0.000000    
-11.612606    92.548439    23.825563    0.234575    -0.083933    87.226402    -1.372560    -4.269821    -0.998803    1.576293    -1.201652    -0.931129    -2.660094    40.211536    1.767062    6.440115    -3.646658    2.307694    17.810972    1.402810    4.082697    -13.861416    4.860585    -6.697397    1.984397    1.503604    -6.712302    21.562916    0.256037    -7.154084    -15.214073    -0.254345    10.758210    16.775471    1.127156    -3.874780    -0.465549    -0.313165    3.155564    3.641935    -0.134123    5.223930    6.009058    4.242065    -1.558645    -2.594569    1.103420    1.119073    -2.445055    -5.707283    23.712473    0.000000    0.000000    0.000000    -6.498693    -0.062185    3.431534    4.113771    6.258363    -1.362568    3.438004    -7.893436    -16.716549    0.000000    0.000000    0.000000    
-11.611832    92.548416    23.831305    0.242224    -0.081574    87.221603    -1.388049    -4.266871    -0.985353    1.621765    -1.213150    -0.916445    -2.862775    40.561562    1.840276    6.577413    -3.980184    2.365407    17.723017    1.449734    4.057993    -13.918740    4.959700    -6.695837    2.072395    1.456720    -6.840982    21.396046    0.239604    -7.089798    -15.193954    -0.227617    10.747914    16.798067    1.108986    -3.875739    -0.478594    -0.353590    3.237653    3.748251    -0.173252    5.097366    6.011926    4.251993    -1.558991    -2.598172    1.102974    1.119029    -2.436844    -5.699912    23.709059    0.000000    0.000000    0.000000    -6.496753    -0.062366    3.408455    4.107101    6.274107    -1.323000    3.446681    -7.900535    -16.729443    0.000000    0.000000    0.000000    
-11.613599    92.547989    23.837280    0.236659    -0.084876    87.218697    -1.429516    -4.295470    -0.968996    1.730904    -1.171014    -0.897782    -3.157461    40.885014    1.935691    6.768962    -4.322313    2.433342    17.611521    1.481746    4.062487    -13.997071    4.990211    -6.735885    2.133823    1.351721    -7.011075    21.646420    0.159596    -6.911670    -15.221181    -0.212677    10.688688    16.830980    1.068230    -3.840575    -0.470999    -0.331693    3.278752    3.580672    -0.158023    5.126398    6.020369    4.238705    -1.564339    -2.605617    1.114485    1.150818    -2.429722    -5.708393    23.694118    0.000000    0.000000    0.000000    -6.491320    -0.070799    3.416286    4.114403    6.280003    -1.348876    3.435716    -7.903169    -16.713440    0.000000    0.000000    0.000000    
-11.611998    92.547195    23.840818    0.245173    -0.088153    87.219131    -1.449015    -4.295350    -0.959838    1.802596    -1.164591    -0.887227    -3.438275    41.201687    2.036732    6.951590    -4.636258    2.506576    17.510319    1.530348    4.070142    -14.065705    5.085289    -6.748933    2.322549    1.405149    -7.182785    20.565573    0.285796    -6.965419    -15.213928    -0.172892    10.660803    16.851282    1.042886    -3.818869    -0.482826    -0.314961    3.315420    3.550007    -0.141932    5.127002    6.024593    4.244286    -1.561769    -2.597848    1.126145    1.124618    -2.433500    -5.714029    23.704086    0.000000    0.000000    0.000000    -6.489150    -0.060335    3.411546    4.115255    6.277633    -1.329536    3.449049    -7.904135    -16.720339    0.000000    0.000000    0.000000    
-11.613922    92.547714    23.845900    0.240140    -0.083753    87.223907    -1.493426    -4.320599    -0.942941    1.895985    -1.131467    -0.867929    -3.702305    41.526958    2.122790    7.131214    -4.974380    2.567888    17.401104    1.591600    4.054082    -14.141207    5.086160    -6.768164    2.364463    1.392511    -7.366998    20.829340    0.246344    -7.056062    -15.198994    -0.133760    10.604698    16.862942    1.032380    -3.793576    -0.483341    -0.360166    3.380187    3.441956    -0.194430    5.045728    6.028766    4.232309    -1.570326    -2.610858    1.133639    1.134417    -2.429608    -5.712782    23.704355    0.000000    0.000000    0.000000    -6.488136    -0.070947    3.398926    4.111938    6.287237    -1.302900    3.442094    -7.915264    -16.741409    0.000000    0.000000    0.000000    
